<svg width="20" height="20" viewBox="0 0 20 20" fill="none" xmlns="http://www.w3.org/2000/svg">
<path d="M2.08337 3.54169C2.08337 3.37593 2.14922 3.21696 2.26643 3.09975C2.38364 2.98253 2.54261 2.91669 2.70837 2.91669H3.17337C3.96504 2.91669 4.44004 3.44919 4.71087 3.94419C4.89171 4.27419 5.02254 4.65669 5.12504 5.00335C5.15276 5.00116 5.18056 5.00005 5.20837 5.00002H15.6234C16.315 5.00002 16.815 5.66169 16.625 6.32752L15.1017 11.6684C14.9651 12.1474 14.6762 12.5689 14.2786 12.869C13.881 13.1692 13.3965 13.3316 12.8984 13.3317H7.94171C7.43962 13.3317 6.95142 13.1668 6.55214 12.8624C6.15287 12.558 5.86462 12.1309 5.73171 11.6467L5.09837 9.33669L4.04837 5.79669L4.04754 5.79002C3.91754 5.31752 3.79587 4.87502 3.61421 4.54502C3.44004 4.22419 3.30004 4.16669 3.17421 4.16669H2.70837C2.54261 4.16669 2.38364 4.10084 2.26643 3.98363C2.14922 3.86642 2.08337 3.70745 2.08337 3.54169ZM6.31087 9.03335L6.93671 11.3159C7.06171 11.7675 7.47254 12.0817 7.94171 12.0817H12.8984C13.1248 12.0817 13.3451 12.0079 13.5258 11.8715C13.7065 11.7351 13.8379 11.5436 13.9 11.3259L15.3475 6.25002H5.48754L6.29921 8.98919L6.31087 9.03335Z" fill="white"/>
<path d="M9.16671 15.8334C9.16671 16.2754 8.99111 16.6993 8.67855 17.0119C8.36599 17.3244 7.94207 17.5 7.50004 17.5C7.05801 17.5 6.63409 17.3244 6.32153 17.0119C6.00897 16.6993 5.83337 16.2754 5.83337 15.8334C5.83337 15.3913 6.00897 14.9674 6.32153 14.6548C6.63409 14.3423 7.05801 14.1667 7.50004 14.1667C7.94207 14.1667 8.36599 14.3423 8.67855 14.6548C8.99111 14.9674 9.16671 15.3913 9.16671 15.8334ZM7.91671 15.8334C7.91671 15.7228 7.87281 15.6169 7.79467 15.5387C7.71653 15.4606 7.61055 15.4167 7.50004 15.4167C7.38953 15.4167 7.28355 15.4606 7.20541 15.5387C7.12727 15.6169 7.08337 15.7228 7.08337 15.8334C7.08337 15.9439 7.12727 16.0498 7.20541 16.128C7.28355 16.2061 7.38953 16.25 7.50004 16.25C7.61055 16.25 7.71653 16.2061 7.79467 16.128C7.87281 16.0498 7.91671 15.9439 7.91671 15.8334Z" fill="white"/>
<path d="M15.0001 15.8334C15.0001 16.2754 14.8245 16.6993 14.5119 17.0119C14.1994 17.3244 13.7754 17.5 13.3334 17.5C12.8914 17.5 12.4675 17.3244 12.1549 17.0119C11.8423 16.6993 11.6667 16.2754 11.6667 15.8334C11.6667 15.3913 11.8423 14.9674 12.1549 14.6548C12.4675 14.3423 12.8914 14.1667 13.3334 14.1667C13.7754 14.1667 14.1994 14.3423 14.5119 14.6548C14.8245 14.9674 15.0001 15.3913 15.0001 15.8334ZM13.7501 15.8334C13.7501 15.7228 13.7062 15.6169 13.628 15.5387C13.5499 15.4606 13.4439 15.4167 13.3334 15.4167C13.2229 15.4167 13.1169 15.4606 13.0388 15.5387C12.9606 15.6169 12.9167 15.7228 12.9167 15.8334C12.9167 15.9439 12.9606 16.0498 13.0388 16.128C13.1169 16.2061 13.2229 16.25 13.3334 16.25C13.4439 16.25 13.5499 16.2061 13.628 16.128C13.7062 16.0498 13.7501 15.9439 13.7501 15.8334Z" fill="white"/>
</svg>
