<svg width="18" height="16" viewBox="0 0 18 16" fill="none" xmlns="http://www.w3.org/2000/svg">
<path d="M15.7999 1.84167C14.9152 0.95668 13.7422 0.418613 12.4943 0.325325C11.2464 0.232038 10.0064 0.589726 8.99995 1.33334C7.93966 0.544705 6.61994 0.1871 5.30655 0.332539C3.99315 0.477977 2.78365 1.11566 1.92159 2.11716C1.05953 3.11867 0.608963 4.40961 0.660612 5.73002C0.712261 7.05043 1.26229 8.30223 2.19994 9.23334L8.40828 15.4417C8.48575 15.5198 8.57792 15.5818 8.67946 15.6241C8.78101 15.6664 8.88994 15.6882 8.99995 15.6882C9.10996 15.6882 9.21888 15.6664 9.32043 15.6241C9.42198 15.5818 9.51414 15.5198 9.59161 15.4417L15.7999 9.23334C16.2855 8.74811 16.6707 8.17196 16.9335 7.53781C17.1963 6.90367 17.3315 6.22395 17.3315 5.53751C17.3315 4.85106 17.1963 4.17135 16.9335 3.5372C16.6707 2.90305 16.2855 2.3269 15.7999 1.84167V1.84167ZM14.6249 8.05834L8.99995 13.675L3.37494 8.05834C2.87926 7.56059 2.54159 6.92755 2.4043 6.23862C2.26702 5.5497 2.33622 4.83558 2.60324 4.18584C2.87026 3.53609 3.32319 2.97967 3.90523 2.58636C4.48727 2.19305 5.1725 1.98037 5.87494 1.97501C6.81337 1.97731 7.71253 2.35195 8.37495 3.01667C8.45241 3.09478 8.54458 3.15678 8.64613 3.19908C8.74768 3.24139 8.8566 3.26317 8.96661 3.26317C9.07662 3.26317 9.18554 3.24139 9.28709 3.19908C9.38864 3.15678 9.48081 3.09478 9.55828 3.01667C10.2402 2.42574 11.1212 2.11596 12.0229 2.15003C12.9246 2.18409 13.7797 2.55946 14.4151 3.20016C15.0505 3.84087 15.4188 4.69904 15.4453 5.601C15.4719 6.50296 15.1548 7.38133 14.5583 8.05834H14.6249Z" fill="white"/>
</svg>
