<svg width="21" height="21" viewBox="0 0 21 21" fill="none" xmlns="http://www.w3.org/2000/svg">
<path d="M20.4962 19.2899L16.7862 15.6099C18.2263 13.8143 18.9237 11.5352 18.735 9.2412C18.5463 6.94721 17.4858 4.81269 15.7717 3.27655C14.0575 1.74041 11.82 0.919414 9.51908 0.982375C7.2182 1.04534 5.02888 1.98747 3.4013 3.61505C1.77372 5.24263 0.83159 7.43194 0.76863 9.73283C0.705669 12.0337 1.52667 14.2713 3.0628 15.9854C4.59894 17.6996 6.73346 18.76 9.02746 18.9487C11.3215 19.1374 13.6006 18.44 15.3962 16.9999L19.0762 20.6799C19.1691 20.7736 19.2797 20.848 19.4016 20.8988C19.5234 20.9496 19.6541 20.9757 19.7862 20.9757C19.9182 20.9757 20.0489 20.9496 20.1707 20.8988C20.2926 20.848 20.4032 20.7736 20.4962 20.6799C20.6764 20.4934 20.7771 20.2442 20.7771 19.9849C20.7771 19.7256 20.6764 19.4764 20.4962 19.2899ZM9.78616 16.9999C8.40169 16.9999 7.04831 16.5894 5.89717 15.8202C4.74602 15.051 3.84882 13.9578 3.319 12.6787C2.78919 11.3996 2.65057 9.99214 2.92066 8.63427C3.19076 7.27641 3.85744 6.02912 4.83641 5.05016C5.81538 4.07119 7.06266 3.4045 8.42053 3.13441C9.77839 2.86431 11.1859 3.00293 12.4649 3.53275C13.744 4.06256 14.8373 4.95977 15.6064 6.11091C16.3756 7.26206 16.7862 8.61544 16.7862 9.9999C16.7862 11.8564 16.0487 13.6369 14.7359 14.9497C13.4232 16.2624 11.6427 16.9999 9.78616 16.9999Z" fill="#9295AA"/>
</svg>
